Coordinates
version=1
nRows=26
nColumns=24
inDegrees=yes

Units are S.I. units (second, meters, Newtons, ...)
Angles are in degrees.

endheader
time	pelvis_tilt	pelvis_list	pelvis_rotation	pelvis_tx	pelvis_ty	pelvis_tz	hip_flexion_r	hip_adduction_r	hip_rotation_r	knee_angle_r	ankle_angle_r	subtalar_angle_r	mtp_angle_r	hip_flexion_l	hip_adduction_l	hip_rotation_l	knee_angle_l	ankle_angle_l	subtalar_angle_l	mtp_angle_l	lumbar_extension	lumbar_bending	lumbar_rotation
      1.00800000	     -1.42930855	     -2.72319488	     -2.00836618	     -0.09195891	      1.01534901	      0.30959388	    -10.07959920	      7.19993964	      2.44557301	     -9.06906353	     14.51769979	     -4.04046391	      4.11628984	     20.37502272	     -2.08682273	     -2.26697559	      4.97783609	      4.58236810	     -2.98286152	     -1.36476046	     -6.08552502	      0.35299112	      6.89816919
      1.01216667	     -1.34635290	     -2.58012106	     -2.03963536	     -0.08627291	      1.01465757	      0.30930440	    -10.28082446	      7.02830330	      2.46328596	     -9.54109842	     14.72150775	     -4.16223142	      4.09553508	     20.40616052	     -1.86575748	     -2.20169917	      4.32689355	      4.54086496	     -3.06754391	     -1.31789343	     -6.14004583	      0.17289710	      6.90412502
      1.01633333	     -1.22493863	     -2.41493954	     -2.08269330	     -0.08055745	      1.01404873	      0.30898426	    -10.46711532	      6.81038044	      2.30958114	    -10.14185369	     15.13264449	     -3.82972894	      3.95647708	     20.40196447	     -1.62316943	     -2.25554347	      3.62635364	      4.44545877	     -3.07333636	     -0.98613988	     -6.23332971	     -0.04783111	      6.93045883
      1.02050000	     -1.13243344	     -2.25465460	     -2.09335827	     -0.07482712	      1.01341187	      0.30866613	    -10.64532651	      6.62754947	      2.31906629	    -10.68185477	     15.28826356	     -3.99134324	      3.93617764	     20.43715275	     -1.38020660	     -2.21255458	      2.88098230	      4.33607139	     -3.18337455	     -0.92628048	     -6.29251144	     -0.25315682	      6.93236087
      1.02466667	     -1.00602026	     -2.07537824	     -2.12168757	     -0.06906760	      1.01285172	      0.30833294	    -10.80276472	      6.40191965	      2.18148106	    -11.35285463	     15.63013925	     -3.73137336	      3.79828912	     20.42647846	     -1.12129220	     -2.23778321	      2.13029558	      4.10060159	     -3.33198216	     -0.46368718	     -6.38345229	     -0.49464115	      6.92870715
      1.02883333	     -0.90453385	     -1.90779364	     -2.11041551	     -0.06329861	      1.01228531	      0.30797813	    -10.95370504	      6.21892422	      2.18022195	    -11.96748085	     15.71616909	     -3.92951995	      3.78162414	     20.46102493	     -0.86730058	     -2.19870076	      1.32248811	      3.92893372	     -3.45720495	     -0.39794603	     -6.44887420	     -0.70777358	      6.93074001
      1.03300000	     -0.77968251	     -1.71990202	     -2.11276549	     -0.05749980	      1.01176548	      0.30761343	    -11.07102281	      5.99351587	      2.03794066	    -12.71549060	     15.97685163	     -3.73897835	      3.65359777	     20.43528107	     -0.59185354	     -2.09428537	      0.57655485	      3.51623537	     -3.87255627	      0.28347747	     -6.53087870	     -0.96179989	      6.89987698
      1.03716667	     -0.67390018	     -1.54774878	     -2.07958714	     -0.05168283	      1.01125587	      0.30724304	    -11.18775587	      5.81682431	      2.03664160	    -13.41322677	     16.02017591	     -3.97780582	      3.32086311	     20.43264988	     -0.32554975	     -1.89101023	     -0.18068745	      3.05490213	     -4.37421619	      2.71093142	     -6.58274491	     -1.20320810	      6.86448156
      1.04133333	     -0.55120368	     -1.36262755	     -2.07259577	     -0.04585987	      1.01083094	      0.30686175	    -11.27998049	      5.61285551	      2.00773035	    -14.19150487	     15.99887531	     -4.15052230	      3.32119343	     20.44252223	     -0.06103223	     -1.94104656	     -1.02769366	      2.79892873	     -4.45031820	      2.73545614	     -6.67515630	     -1.42814203	      6.86546323
      1.04550000	     -0.43318685	     -1.16275384	     -2.06208803	     -0.03999568	      1.01043062	      0.30650345	    -11.33649764	      5.39406418	      1.94245390	    -15.03730135	     16.00949518	     -4.26161561	      3.33402348	     20.43861514	      0.21550524	     -1.94779287	     -1.84260588	      2.43654516	     -4.62201135	      2.78665631	     -6.71307915	     -1.73023244	      6.84414886
      1.04966667	     -0.34616005	     -0.97094434	     -2.03305710	     -0.03416489	      1.01001307	      0.30603802	    -11.30593649	      5.17240054	      1.78159887	    -15.99052145	     16.05608626	     -4.15607421	      3.41093521	     20.44674923	      0.50267583	     -1.74578912	     -2.60892388	      1.92112981	     -5.16871442	      2.97727730	     -6.76858951	     -1.95882936	      6.79018861
      1.05383333	     -0.22931176	     -0.77022438	     -1.99963563	     -0.02829514	      1.00969549	      0.30559851	    -11.30053136	      4.95071406	      1.66986951	    -16.95014948	     15.96167836	     -4.24519648	      3.52621737	     20.41562753	      0.79441684	     -1.57818071	     -3.37241249	      1.43702084	     -5.62484182	      3.18073609	     -6.83708084	     -2.21851162	      6.73927741
      1.05800000	     -0.13270887	     -0.57002904	     -1.95822698	     -0.02242835	      1.00939024	      0.30512233	    -11.23400620	      4.72605742	      1.52113895	    -17.98243717	     15.82571390	     -4.30485926	      3.68444648	     20.40951838	      1.08615466	     -1.40618786	     -4.14974528	      0.98239932	     -6.05045570	      3.37427930	     -6.88243791	     -2.47741481	      6.68533754
      1.06216667	     -0.04055426	     -0.36259268	     -1.91619764	     -0.01655007	      1.00913841	      0.30462897	    -11.12865337	      4.48906127	      1.35088389	    -19.07646514	     15.63081603	     -4.35268064	      3.88677842	     20.39997980	      1.38470668	     -1.23171716	     -4.91765873	      0.53525473	     -6.47206936	      3.55038917	     -6.92262264	     -2.74558767	      6.62242713
      1.06633333	      0.05570773	     -0.15351754	     -1.86708166	     -0.01067301	      1.00893658	      0.30410195	    -10.99235542	      4.24390939	      1.14729278	    -20.23080359	     15.37561653	     -4.37953383	      4.13070323	     20.38261088	      1.68592957	     -1.05361109	     -5.68638239	      0.12300060	     -6.86957722	      3.70193639	     -6.97003609	     -3.01183450	      6.54964422
      1.07050000	      0.16814631	      0.06572993	     -1.81902737	     -0.00478423	      1.00881145	      0.30354526	    -10.83344437	      3.97339289	      0.89263051	    -21.45477776	     15.04487613	     -4.37452716	      4.58420109	     20.32704812	      2.00106191	     -0.83186541	     -6.42463210	     -0.21822472	     -7.31527811	      3.90385210	     -7.03283905	     -3.27307100	      6.47342744
      1.07466667	      0.22707583	      0.27030475	     -1.76365016	      0.00107654	      1.00865855	      0.30297707	    -10.58322265	      3.72109499	      0.65425708	    -22.73302368	     14.66444792	     -4.37641683	      4.90644318	     20.35705880	      2.28967804	     -0.71094054	     -7.22228742	     -0.55645710	     -7.57134121	      3.99713832	     -7.04674644	     -3.54040825	      6.38995436
      1.07883333	      0.32791804	      0.49421865	     -1.70526986	      0.00694708	      1.00862084	      0.30236391	    -10.33762208	      3.42560622	      0.33657185	    -24.07759912	     14.21805790	     -4.29722305	      5.35727694	     20.31247822	      2.60668399	     -0.52844066	     -7.97195722	     -0.83453331	     -7.90913925	      4.08044114	     -7.10998736	     -3.81502218	      6.28624752
      1.08300000	      0.45504785	      0.72074046	     -1.66092458	      0.01282894	      1.00869003	      0.30177102	    -10.10104831	      3.12158875	      0.05436756	    -25.42519120	     13.51049068	     -4.41839629	      9.44747487	     20.22281620	      2.91744470	     -0.38714731	     -8.70260336	     -1.00972911	     -8.17859065	      4.47147120	     -7.19588644	     -4.09240624	      6.23460487
      1.08716667	      0.56439372	      0.94406019	     -1.61056650	      0.01870167	      1.00877959	      0.30113886	     -9.80098159	      2.80220326	     -0.28998655	    -26.85548872	     12.85001694	     -4.35015617	      9.47612762	     20.15366138	      3.21961693	     -0.30559816	     -9.44378011	     -1.09519482	     -8.26515535	      4.46314870	     -7.26714150	     -4.35847954	      6.16445383
      1.09133333	      0.64154271	      1.16047682	     -1.54699343	      0.02451869	      1.00884508	      0.30044542	     -9.41715650	      2.47249475	     -0.68445233	    -28.36857981	     12.22831407	     -4.17901102	      9.61151578	     20.12216880	      3.52178719	     -0.19002738	    -10.19482540	     -1.17195268	     -8.45276450	      4.42842377	     -7.31665242	     -4.60709056	      6.01584529
      1.09550000	      0.77383493	      1.39378296	     -1.50050611	      0.03037426	      1.00907739	      0.29977900	     -9.08107391	      2.11292159	     -1.05389995	    -29.87182676	     11.40143524	     -4.12454274	      9.69756494	     19.98798164	      3.83386922	     -0.09879180	    -10.87255130	     -1.16163855	     -8.54752945	      4.40537260	     -7.41509209	     -4.87533565	      5.94725040
      1.09966667	      0.92373789	      1.62701553	     -1.41387404	      0.03617353	      1.00935454	      0.29899181	     -8.72791720	      1.72611878	     -1.53098774	    -31.42315741	     10.54913846	     -3.93957524	     12.18596635	     19.81658719	      4.17393290	      0.11097501	    -11.50990123	     -1.19994673	     -8.83978629	      3.71874768	     -7.58951852	     -5.12743046	      5.57218509
      1.10383333	      0.99394793	      1.84845569	     -1.37278642	      0.04197072	      1.00956249	      0.29830655	     -8.25503607	      1.35186794	     -1.90580828	    -33.00878654	      9.57914670	     -3.90254933	     12.24655860	     19.72963059	      4.46346846	      0.15120181	    -12.15976406	     -1.06244735	     -8.81006646	      3.70498281	     -7.60344381	     -5.38024936	      5.61184097
      1.10800000	      1.09723072	      2.06513578	     -1.31367704	      0.04772723	      1.00985646	      0.29755692	     -7.79417878	      0.96349305	     -2.31995426	    -34.61191954	      8.57766842	     -3.81181512	     12.33495289	     19.58969147	      4.75725982	      0.20264519	    -12.77649880	     -0.90542987	     -8.80104202	      3.68182768	     -7.68686815	     -5.61704712	      5.54184291
      1.11216667	      1.15594483	      2.26834954	     -1.24080026	      0.05344161	      1.01011370	      0.29676304	     -7.25384310	      0.57249200	     -2.76315846	    -36.24488482	      7.54953743	     -3.71712120	     12.74172502	     19.49427714	      5.03483970	      0.21149600	    -13.38911729	     -0.68226669	     -8.73416268	      3.56072174	     -7.72360080	     -5.81453248	      5.27305696
